<svg width="18" height="18" viewBox="0 0 18 18" fill="none" xmlns="http://www.w3.org/2000/svg">
<path d="M2.55379 16.368L3.46729 6.01799C3.53592 5.23837 4.17829 4.64999 4.96129 4.64999C5.14118 4.64999 5.28754 4.79624 5.28754 4.97624V6.58987C5.28754 6.74962 5.40829 6.88912 5.56767 6.89924C5.74242 6.91049 5.88754 6.77212 5.88754 6.59999V3.1125C5.88754 1.39612 7.28367 0 9.00004 0C10.7164 0 12.1125 1.39612 12.1125 3.1125V4.64999H13.0388C13.8218 4.64999 14.4642 5.23837 14.5328 6.01799L15.4463 16.368C15.5232 17.2427 14.8334 18 13.9519 18H4.04817C3.16654 18 2.47692 17.2426 2.55379 16.368ZM10.725 16.0125H12.9C13.0657 16.0125 13.2 15.8782 13.2 15.7125C13.2 15.5468 13.0657 15.4125 12.9 15.4125H10.725C10.5594 15.4125 10.425 15.5468 10.425 15.7125C10.425 15.8782 10.5594 16.0125 10.725 16.0125ZM10.725 14.5125H12.9C13.0657 14.5125 13.2 14.3782 13.2 14.2125C13.2 14.0468 13.0657 13.9125 12.9 13.9125H10.725C10.5594 13.9125 10.425 14.0468 10.425 14.2125C10.425 14.3782 10.5594 14.5125 10.725 14.5125ZM6.48754 4.64999H10.5863C10.7663 4.64999 10.9125 4.79624 10.9125 4.97624V6.58987C10.9125 6.74962 11.0333 6.88912 11.1927 6.89924C11.3674 6.91049 11.5125 6.77212 11.5125 6.59999V3.1125C11.5125 1.72725 10.3853 0.599999 9.00004 0.599999C7.61479 0.599999 6.48754 1.72725 6.48754 3.1125V4.64999Z" fill="white"/>
</svg>
