<svg width="18" height="18" viewBox="0 0 18 18" fill="none" xmlns="http://www.w3.org/2000/svg">
<path fill-rule="evenodd" clip-rule="evenodd" d="M7.84043 16.966L9 17.9994L10.1596 16.966C13.8624 13.6661 15.75 10.7349 15.75 7.991C15.75 4.09549 12.7605 1.125 9 1.125C5.23954 1.125 2.25 4.09549 2.25 7.991C2.25 10.7349 4.13763 13.6661 7.84043 16.966ZM9 3.375C11.521 3.375 13.5 5.34136 13.5 7.991C13.5 9.86935 12.0398 12.2028 9 14.9818C5.96025 12.2028 4.5 9.86935 4.5 7.991C4.5 5.34136 6.47897 3.375 9 3.375ZM9 4.5C10.864 4.5 12.375 6.01104 12.375 7.875C12.375 9.73896 10.864 11.25 9 11.25C7.13604 11.25 5.625 9.73896 5.625 7.875C5.625 6.01104 7.13604 4.5 9 4.5ZM7.875 7.875C7.875 7.25368 8.37868 6.75 9 6.75C9.62132 6.75 10.125 7.25368 10.125 7.875C10.125 8.49632 9.62132 9 9 9C8.37868 9 7.875 8.49632 7.875 7.875Z" fill="#888888"/>
</svg>
